<?xml version="1.0" encoding="UTF-8" standalone="no"?>
<svg
   xmlns:dc="http://purl.org/dc/elements/1.1/"
   xmlns:cc="http://creativecommons.org/ns#"
   xmlns:rdf="http://www.w3.org/1999/02/22-rdf-syntax-ns#"
   xmlns:svg="http://www.w3.org/2000/svg"
   xmlns="http://www.w3.org/2000/svg"
   xmlns:sodipodi="http://sodipodi.sourceforge.net/DTD/sodipodi-0.dtd"
   xmlns:inkscape="http://www.inkscape.org/namespaces/inkscape"
   version="1.1"
   id="svg10"
   width="1005.2117"
   height="1026.5079"
   viewBox="0 0 1005.2117 1026.5079"
   sodipodi:docname="Logo recherche de fuite.svg"
   inkscape:version="1.0.1 (3bc2e813f5, 2020-09-07)"
   inkscape:export-filename="C:\Users\seb13\OneDrive\Documents\Boulot Seb\A LA RECHERCHE DE FUITE\Logo.png"
   inkscape:export-xdpi="300"
   inkscape:export-ydpi="300">
  <metadata
     id="metadata16">
    <rdf:RDF>
      <cc:Work
         rdf:about="">
        <dc:format>image/svg+xml</dc:format>
        <dc:type
           rdf:resource="http://purl.org/dc/dcmitype/StillImage" />
        <dc:title />
      </cc:Work>
    </rdf:RDF>
  </metadata>
  <defs
     id="defs14">
    <clipPath
       clipPathUnits="userSpaceOnUse"
       id="clipPath24">
      <rect
         style="fill:#ffffff;stroke-width:6.1"
         id="rect26"
         width="1169.5907"
         height="1171.462"
         x="18.713449"
         y="247.01755" />
    </clipPath>
  </defs>
  <sodipodi:namedview
     pagecolor="#ffffff"
     bordercolor="#666666"
     borderopacity="1"
     objecttolerance="10"
     gridtolerance="10"
     guidetolerance="10"
     inkscape:pageopacity="0"
     inkscape:pageshadow="2"
     inkscape:window-width="1920"
     inkscape:window-height="1051"
     id="namedview12"
     showgrid="false"
     inkscape:zoom="0.534375"
     inkscape:cx="583.32404"
     inkscape:cy="681.67211"
     inkscape:window-x="-9"
     inkscape:window-y="-9"
     inkscape:window-maximized="1"
     inkscape:current-layer="g18"
     fit-margin-top="0"
     fit-margin-left="0"
     fit-margin-right="0"
     fit-margin-bottom="0"
     inkscape:document-rotation="0" />
  <g
     inkscape:groupmode="layer"
     inkscape:label="Image"
     id="g18"
     transform="translate(-121.81574,-79.637615)">
    <ellipse
       style="fill:#ffffff;stroke:none;stroke-width:4.70587;stroke-opacity:1"
       id="path12"
       cx="622.40057"
       cy="597.06458"
       rx="605.59521"
       ry="618.69464"
       inkscape:export-xdpi="300"
       inkscape:export-ydpi="300" />
    <path
       style="fill:#303869;fill-opacity:1"
       d="m 317.18526,1104.3348 c -14.6453,-6.764 -18.991,-9.5533 -27.0131,-17.338 -6.9895,-6.7826 -10.0569,-10.4677 -13.7174,-16.4793 -2.4458,-4.0168 -12.0193,-24.1027 -13.1171,-27.5207 -1.823,-5.6761 -4.8633,-18.1495 -5.6061,-23 -0.379,-2.475 -1.5294,-9 -2.5563,-14.5 -2.3084,-12.36206 -3.5289,-52.66866 -2.1955,-72.49996 0.4992,-7.425 0.5464,-14.4848 0.1047,-15.6884 -0.4416,-1.2036 -4.312,-6.2102 -8.601,-11.1258 -10.5378,-12.0773 -19.525,-23.0497 -21.8577,-26.6858 -1.0585,-1.65 -2.7604,-3.9 -3.782,-5 -2.1509,-2.316 -9.2408,-12.1942 -12.1585,-16.9404 -1.1,-1.7893 -3.8,-6.016 -6,-9.3926 -2.2,-3.3766 -5.8,-9.1038 -8,-12.7271 -2.2,-3.6232 -4.9855,-8.1095 -6.1899,-9.9696 -2.8504,-4.402 -17.14,-32.4647 -22.3311,-43.855 -18.7624,-41.16874 -33.1853,-91.61254 -38.9181,-136.11533 -3.1843,-24.71902 -3.5536,-31.50292 -3.4024,-62.5 0.2317,-47.50746 1.655,-71.84626 5.252,-89.81485 1.6169,-8.07683 3.2707,-16.48515 3.6752,-18.68515 2.0601,-11.20494 5.4589,-24.75125 7.981,-31.8096 1.3383,-3.74528 2.4333,-7.88122 2.4333,-9.19098 0,-1.30976 0.3919,-2.62358 0.8708,-2.91959 0.479,-0.29602 1.1511,-1.93954 1.4937,-3.65227 1.6567,-8.28352 18.5382,-50.28963 26.4952,-65.92756 9.5087,-18.68767 17.56,-33.7471 19.5124,-36.49647 1.1703,-1.64806 3.0279,-4.64402 4.1279,-6.65768 1.1,-2.01367 2.9793,-4.94025 4.1762,-6.50353 1.1969,-1.56328 6.1002,-8.69232 10.8961,-15.84232 6.9555,-10.36963 24.315,-33.0945 29.8878,-39.12539 0.5719,-0.61896 3.9649,-4.42719 7.5399,-8.46272 15.7839,-17.81722 40.7196,-41.5835 57.5,-54.80347 4.4,-3.46641 8.9087,-7.04638 10.0194,-7.95549 1.1107,-0.90911 4.7107,-3.64783 8,-6.08605 3.2893,-2.43822 6.2056,-4.68822 6.4806,-5 0.6945,-0.78743 18.1908,-12.47497 19.4136,-12.96832 0.5473,-0.22079 1.4656,-0.79513 2.0407,-1.2763 0.5751,-0.48117 3.2957,-2.29681 6.0457,-4.03476 2.75,-1.73795 7.25,-4.6159 10,-6.39545 11.8451,-7.66507 41.9864,-23.39205 44.8316,-23.39205 0.2427,0 4.6549,-1.97233 9.8048,-4.38295 15.5225,-7.26589 17.9785,-8.28229 27.8636,-11.53134 5.225,-1.71736 10.4,-3.52664 11.5,-4.02063 1.1,-0.49398 2.9,-1.1357 4,-1.42604 1.1,-0.29034 8.0449,-2.5779 15.4332,-5.083463 7.3883,-2.50557 14.2457,-4.55558 15.2388,-4.55558 0.9931,0 5.0732,-0.85393 9.0668,-1.89763 14.917,-3.8984 34.2009,-7.64405 60.7612,-11.80205 9.987,-1.56347 17.486,-1.77585 57,-1.61428 25.02505,0.10232 48.87505,0.62697 53.00005,1.16589 15.4635,2.02027 51.8322,7.84963 58,9.29655 2.475,0.58061 7.425,1.68158 11,2.4466 12.3557,2.644 47.6139,13.414033 55.6511,16.999263 1.7331,0.77311 3.6517,1.40566 4.2636,1.40566 0.6118,0 1.8938,0.40948 2.8488,0.90996 2.6368,1.3818 12.3851,5.09004 13.3807,5.09004 2.0317,0 33.8365,15.33672 48.3558,23.31786 4.4,2.41864 10.475,5.74954 13.5,7.402 4.6077,2.51706 22.333,14.19719 36.8745,24.29857 11.2014,7.78111 25.7986,19.13786 31.4865,24.49678 1.1765,1.10837 6.1836,5.38337 11.1271,9.5 14.033,11.68595 38.2091,36.59439 51.96909,53.54337 3.0995,3.81778 6.963,8.41736 8.5856,10.22128 1.6226,1.80392 3.7334,4.50392 4.6907,6 0.9573,1.49608 2.2931,3.29901 2.9685,4.00653 0.6753,0.70751 2.0157,2.62001 2.9785,4.25 0.9629,1.62998 2.1037,2.96361 2.5351,2.96361 0.4314,0 0.7844,0.38896 0.7844,0.86435 0,0.4754 4.1625,7.22497 9.25,14.99905 30.244,46.21516 44.437,76.71433 62.654,134.6366 3.2172,10.22951 5.9778,21.09949 7.238,28.5 0.6088,3.575 1.9047,9.2 2.8799,12.5 0.9752,3.3 2.3012,10.66751 2.9468,16.37224 0.6456,5.70473 1.5304,11.32973 1.9662,12.5 2.1118,5.66993 3.7466,32.06907 4.6215,74.62776 0.5309,25.82606 0.3831,31.62104 -0.9647,37.81538 -0.8754,4.02345 -1.5994,10.54845 -1.6088,14.5 -0.01,3.95154 -0.9018,10.55962 -1.9829,14.68462 -1.0811,4.125 -1.9733,9.075 -1.9824,11 -0.02,4.16409 -3.4766,22.33242 -5.662,29.75933 -0.8512,2.89263 -2.1251,7.84263 -2.8309,11 -1.8006,8.05468 -4.6079,17.71486 -9.3694,32.24066 -6.2481,19.06084 -7.7296,23.19684 -10.4158,29.07824 -1.3619,2.982 -3.4583,7.8968 -4.6587,10.9218 -2.6136,6.5861 -21.3594,44.422 -25.5158,51.5 -1.6149,2.75 -5.1026,8.4626 -7.7506,12.6947 -2.6479,4.232 -4.8144,7.9652 -4.8144,8.296 0,0.5753 -7.0649,11.0276 -17.5834,26.0144 -15.688,22.352 -46.16699,56.2655 -64.41659,71.6752 -3.025,2.5542 -7.57,6.5961 -10.0999,8.9819 -5.6554,5.3331 -8.8174,8.0246 -14.7318,12.5391 -2.5205,1.9239 -6.852,5.4038 -9.6255,7.733 -4.9364,4.1456 -7.8976,6.3252 -20.0428,14.7524 -3.3,2.2897 -6.225,4.4356 -6.5,4.7686 -1.6483,1.9958 -37.1736,23.04466 -38.8937,23.04466 -0.5168,0 -1.0897,0.3417 -1.273,0.7593 -0.1833,0.4175 -6.6333,3.8261 -14.3333,7.5746 -7.7,3.7485 -16.025,7.8565 -18.5,9.1289 -2.475,1.2725 -7.65,3.4474 -11.5,4.8333 -3.85,1.3858 -9.0818,3.4212 -11.6262,4.5232 -6.9799,3.0228 -40.4763,14.6964 -47.8738,16.6841 -3.575,0.9606 -10.1,2.7946 -14.5,4.0755 -4.4,1.281 -11.375,2.8363 -15.5,3.4563 -4.125,0.6201 -9.75,1.728 -12.5,2.462 -2.75,0.7341 -8.6,1.6224 -13,1.974 -4.4,0.3516 -9.9248,1.2883 -12.2772,2.0814 -5.7806,1.949 -39.7063,4.1777 -69.22285,4.5474 -11.0799,0.1389 -55.9432,-2.2165 -60,-3.15 -2.475,-0.5695 -8.55,-1.4838 -13.5,-2.0317 -15.2625,-1.6894 -27.2363,-4.1031 -48.5,-9.7766 -6.325,-1.6876 -12.625,-3.35 -14,-3.6943 -6.7986,-1.7022 -17.2427,-4.8289 -23.7613,-7.1136 -4.2603,-1.4931 -8.1866,-2.2886 -9.5,-1.9247 -1.2313,0.3411 -5.3887,3.5702 -9.2387,7.1757 -7.6222,7.1381 -21.9506,18.2381 -33,25.5646 -9.4281,6.2514 -31.9314,17.5102 -37.5,18.7619 -2.475,0.5563 -8.325,1.9349 -13,3.0636 -11.2437,2.7145 -40.4102,2.9447 -46,0.3631 z m 23.9295,-21.4611 c 24.6058,-7.9506 38.0486,-14.7577 59.989,-30.3769 9.0831,-6.4662 21.8861,-16.4894 25.1888,-19.7197 0.766,-0.7492 2.3785,-2.0424 3.5833,-2.8738 10.4553,-7.2147 45.501,-41.02806 74.0089,-71.40646 6.7097,-7.15 16.9678,-17.95 22.7957,-24 5.8279,-6.05 14.0508,-15.05 18.2731,-20 4.2222,-4.95 11.0672,-12.825 15.2109,-17.5 4.1438,-4.675 11.2603,-13.0707 15.8144,-18.6572 8.6234,-10.5782 9.5765,-11.3428 14.1389,-11.3428 2.9455,0 7.5644,-1.3069 12.7186,-3.5988 1.7331,-0.7707 3.4759,-1.4012 3.8729,-1.4012 1.6356,0 23.346,-11.5134 27.976,-14.8361 7.87555,-5.652 18.34515,-15.1818 22.68995,-20.6533 4.8226,-6.0731 13.8988,-15.6119 19.8961,-20.91 13.8161,-12.2054 36.3727,-34.5948 37.8813,-37.6006 2.6691,-5.3177 1.0117,-16 -2.4824,-16 -1.9347,0 -7.6816,3.1093 -12.9849,7.0253 -8.4458,6.2365 -18.8988,13.1758 -21.1187,14.0198 -1.9154,0.7283 -2.9596,0.2752 -6.022,-2.613 l -3.7047,-3.494 3.9227,-4.1194 c 2.1575,-2.2656 4.8181,-5.0642 5.9125,-6.219 1.0945,-1.1548 4.0195,-3.8444 6.5,-5.97694 2.4806,-2.1324 7.5477,-6.75 11.2602,-10.2612 5.6343,-5.3288 6.7494,-6.9193 6.7462,-9.6228 -0.01,-4.5071 -3.3706,-9.7388 -6.2648,-9.7388 -1.2638,0 -6.108,2.7193 -10.7647,6.0428 -4.6567,3.3235 -10.7784,7.5798 -13.6038,9.4585 -2.8253,1.8786 -5.7503,4.0137 -6.5,4.7446 -2.2524,2.1963 -8.495,5.7541 -10.0961,5.7541 -2.2383,0 -6.7684,-3.9041 -6.7562,-5.8226 0.014,-2.2464 5.7206,-8.2411 22.4894,-23.626 7.7,-7.06448 14.5625,-13.5396 15.25,-14.3891 2.4322,-3.00535 0.5985,-11.67093 -3.2932,-15.56265 -4.0086,-4.00856 -6.6122,-2.37396 -32.2732,20.26197 -10.3941,9.16868 -12.84285,10.64618 -15.86145,9.57038 -1.4383,-0.5126 -3.0654,-1.6499 -3.6159,-2.5272 -2.4324,-3.87698 0.1559,-6.98488 27.54375,-33.07303 5.4542,-5.19541 6.75,-7.01553 6.75,-9.4815 0,-6.28145 -4.9815,-15.57484 -9.0388,-16.86258 -1.9385,-0.61524 -5.3628,0.94817 -10.4455,4.76895 -13.64395,10.25643 -34.57535,25.61155 -37.01575,27.15444 -5.362,3.38993 -21.94,15.9296 -24.2522,18.34451 -3.3262,3.47383 -4.4522,6.06983 -10.7332,24.74441 -3.1447,9.35 -6.0299,17.45 -6.4115,18 -0.7327,1.0561 -3.685,8.64434 -6.614,17.00004 -2.916,8.3189 -14.9814,31.9014 -19.2509,37.6271 -5.3056,7.1153 -8.2836,9.6798 -17.2382,14.8446 -4.125,2.3792 -11.325,6.6759 -16,9.5482 -4.675,2.8724 -10.75,6.4504 -13.5,7.9513 -4.2519,2.3206 -13.0919,7.3636 -18.5,10.554 -10.0142,5.9075 -13.9449,8.1257 -22.5,12.6975 -27.7972,14.8545 -82.8432,41.5422 -90.1729,43.7181 -1.1951,0.3548 -5.2451,2.125 -9,3.9339 -3.7549,1.8089 -12.3848,5.4713 -19.1775,8.1387 -9.4266,3.7015 -12.741,4.6038 -14,3.811 -3.0393,-1.9139 -2.2684,-3.9463 3.8098,-10.0434 8.2574,-8.283 8.089,-9.5086 -1.2094,-8.8021 -16.5923,1.2607 -20.698,1.8373 -29.7091,4.1722 -10.2387,2.6531 -11.4559,3.317 -13.5672,7.3996 -3.6907,7.1372 -4.4721,16.4749 -4.4729,53.4559 -5e-4,22.2022 0.4007,37.34586 1.0465,39.49996 0.5761,1.9214 1.6878,7.0248 2.4705,11.341 2.0715,11.4235 7.7457,25.6491 15.4136,38.643 8.4183,14.2655 27.0127,29.5848 37.4981,30.8934 0.5112,0.064 3.8862,-0.8394 7.5,-2.0071 z M 899.92491,953.02584 c 14.2495,-9.6258 27.7576,-21.4155 26.6291,-23.2413 -0.314,-0.5082 -1.041,-0.4939 -1.7078,0.033 -3.0285,2.3953 -10.467,3.5603 -26.1609,4.0973 l -17,0.5816 -0.2814,12.9471 c -0.3039,13.9867 -0.078,15.5529 2.2396,15.5529 0.8366,0 8.1632,-4.4869 16.2814,-9.971 z m 36.7462,-40.0266 c 6.4421,-1.1013 13.1307,-2.0041 14.8635,-2.0061 1.7329,0 4.7257,-0.9547 6.6507,-2.1169 5.1011,-3.0798 20.3548,-18.9119 24.676,-25.6116 2.0461,-3.1723 4.8686,-7.0348 6.2721,-8.5835 3.6145,-3.9881 3.4137,-10.5063 -0.7143,-23.1843 -3.8475,-11.8164 -6.1482,-19.2768 -10.3311,-33.5 -1.6983,-5.775 -3.6526,-12.075 -4.3428,-14 -0.6902,-1.925 -3.8492,-11.375 -7.02,-21 -3.1708,-9.625 -6.6145,-19.272 -7.6525,-21.4378 -1.0381,-2.1658 -1.8874,-4.3391 -1.8874,-4.8295 0,-1.3668 -4.5274,-12.75094 -11.2279,-28.23274 -12.5103,-28.90529 -26.9612,-53.82539 -39.6774,-68.42214 -10.7653,-12.35742 -21.5309,-21.35583 -26.9823,-22.55315 l -3.3481,-0.73538 0.6541,33.35534 c 0.3598,18.34544 0.8477,37.63035 1.0842,42.85535 0.2364,5.22498 0.6962,33.79998 1.0216,63.50002 0.3254,29.7 0.7816,58.05 1.0138,63 0.2322,4.95 0.4311,22.183 0.4421,38.2955 0.02,29.2691 0.022,29.2975 2.3323,31.6078 2.1143,2.1143 9.8198,4.3945 20.1876,5.9737 5.4245,0.8263 22.0628,-0.3362 33.9858,-2.3746 z m -564.98585,-34.5541 c 2.75,-1.3202 13.5057,-5.6749 23.9015,-9.6772 l 18.9015,-7.277 6.4238,-19.497 c 6.2152,-18.8638 11.1009,-36.0652 13.7746,-48.4971 0.7097,-3.3 1.9685,-9.15 2.7973,-13 0.8287,-3.85 1.8148,-9.925 2.1913,-13.5 0.3765,-3.575 1.5322,-10.4694 2.5684,-15.3209 2.4619,-11.52774 3.4468,-27.13624 3.4186,-54.17913 -0.019,-18.49175 -0.3964,-24.15279 -2.3654,-35.5 -5.2153,-30.05658 -12.444,-43.58898 -25.1057,-46.99841 -7.9679,-2.14553 -21.1037,5.13755 -26.7129,14.81076 -1.495,2.57821 -3.2487,5.13765 -3.8971,5.68765 -0.6484,0.55 -2.42,3.025 -3.937,5.5 -1.517,2.475 -4.8173,7.65 -7.334,11.5 -2.5167,3.85 -5.2619,8.22819 -6.1004,9.72931 -0.8385,1.50112 -4.2826,7.12612 -7.6536,12.5 -3.371,5.37388 -10.5146,17.64569 -15.8746,27.27069 -12.8587,23.09039 -14.597,26.25889 -18.8679,34.39189 -1.9905,3.7906 -4.0217,7.3906 -4.5137,8 -3.6888,4.5692 -37.4147,76.21064 -44.0669,93.60814 -1.1566,3.025 -2.5326,6.4 -3.0578,7.5 -0.5251,1.1 -2.5065,6.7995 -4.4031,12.6656 -1.8966,5.8661 -4.1545,12.0313 -5.0176,13.7004 -2.6921,5.2058 -2.3404,5.4759 6.1807,4.7465 4.2625,-0.3648 11.1969,-1.3482 15.4098,-2.1853 10.2922,-2.0452 37.6594,-1.5309 46.6185,0.8761 3.4531,0.9277 8.1558,1.504 10.4505,1.2806 3.1214,-0.3038 5.6911,0.3174 10.2025,2.4661 6.6858,3.1844 8.3083,3.1237 16.0687,-0.6017 z m 361.53415,-19.3072 c 3.1802,-8.4398 3.4789,-15.2942 1.1452,-26.2853 -2.5173,-11.8562 -8.5272,-24.4291 -15.5857,-32.6058 -2.6298,-3.0464 -4.3947,-2.833 -7.762,0.9386 -2.67,2.9906 -3.0416,6.1737 -0.9119,7.8114 0.3576,0.275 3.2405,4.3453 6.4064,9.0451 9.7834,14.5235 14.2115,34.0593 10.3132,45.4999 -0.8816,2.5876 -1.3134,5.1733 -0.9595,5.746 0.9753,1.578 5.0586,-4.0576 7.3543,-10.1499 z m -481.23415,-3.3411 c 0.66,-0.66 1.2,-2.3981 1.2,-3.8625 0,-4.2897 5.803,-17.4471 24.6709,-55.9375 17.7374,-36.1844 28.9882,-58.49234 31.6683,-62.79184 1.2713,-2.0395 4.2362,-7.3082 6.5888,-11.7082 17.8153,-33.32081 33.3487,-60.60587 43.5515,-76.49999 18.4534,-28.74731 27.6842,-40.52971 38.2389,-48.80903 4.6466,-3.64487 23.029,-13.0205 32.0379,-16.34039 3.159,-1.16412 6.1937,-2.46647 6.7437,-2.8941 0.55,-0.42763 2.8,-1.10512 5,-1.50553 2.2,-0.40041 5.125,-1.50182 6.5,-2.44756 1.375,-0.94575 6.325,-2.85776 11,-4.24891 4.675,-1.39114 11.2,-3.45314 14.5,-4.58221 3.3,-1.12906 7.2306,-2.31157 8.7347,-2.62779 4.1705,-0.87678 4.6521,-4.65722 1.2236,-9.60458 -1.5252,-2.2009 -3.1142,-3.87525 -3.5312,-3.72077 -0.4169,0.15448 -2.2962,2.53087 -4.1761,5.28087 -4.0342,5.90107 -11.8319,12.15969 -16.751,13.4448 -9.942,2.59728 -14.5815,3.19494 -17.1389,2.20779 -4.0144,-1.54955 -9.3197,-6.62551 -12.9918,-12.43022 -1.817,-2.8723 -3.5865,-5.44737 -3.9321,-5.72237 -0.3457,-0.275 -1.2604,-1.70773 -2.0329,-3.18385 -0.7724,-1.47611 -3.6543,-6.42611 -6.4043,-11 -2.75,-4.57388 -5.2986,-8.99115 -5.6636,-9.81615 -0.3649,-0.825 -2.027,-2.9625 -3.6936,-4.75 -3.6973,-3.96567 -6.4833,-4.12465 -13.1428,-0.75 -6.3229,3.20403 -7.6802,3.1471 -13.2719,-0.55669 -5.5994,-3.70887 -10.1283,-10.2746 -11.7499,-17.03411 -1.517,-6.32342 0.1844,-11.41669 5.9953,-17.94759 4.6873,-5.26816 5.0751,-7.66031 1.3917,-8.58479 -1.8451,-0.4631 -4.2575,0.1346 -8.0496,1.9944 -14.9423,7.32841 -32.5709,5.07696 -44.3302,-5.66168 -9.5782,-8.7468 -12.4071,-14.8645 -11.7914,-25.49998 0.4994,-8.62777 4.0236,-17.05311 10.406,-24.87786 3.3786,-4.14207 4.3243,-7.64238 2.3882,-8.83896 -0.5564,-0.34391 -2.7259,-3.18296 -4.8209,-6.30901 -2.0951,-3.12605 -8.6006,-12.75572 -14.4567,-21.39926 -12.3209,-18.18559 -14.2128,-22.81817 -14.2053,-34.78447 0,-7.06981 0.4457,-9.44093 2.6224,-14.09218 4.6164,-9.86421 15.3631,-18.86792 36.3723,-30.47312 2.75,-1.51906 6.575,-3.70597 8.5,-4.85979 1.925,-1.15383 5.0016,-2.9927 6.8368,-4.08639 1.8353,-1.09368 5.8853,-3.60258 9,-5.57532 3.1148,-1.97273 8.3632,-5.05271 11.6632,-6.84439 3.3,-1.79167 7.8,-4.37393 10,-5.73834 17.369,-10.77207 21.5359,-12.33047 32.9695,-12.33047 15.5697,0 29.2939,4.6487 40.2649,13.63861 4.5841,3.75633 6.029,6.25749 8.6934,15.04929 2.0512,6.76838 1.9958,7.58314 -0.6778,9.98336 -3.156,2.83319 -44.0621,26.32874 -45.8388,26.32874 -0.4465,0 -1.1717,0.5625 -1.6115,1.25 -0.4399,0.6875 -3.2747,2.48836 -6.2997,4.0019 -3.025,1.51355 -10.225,5.43119 -16,8.70587 -11.3536,6.43798 -13.5678,7.58654 -16.25,8.42949 -0.9625,0.30248 -1.75,1.17512 -1.75,1.9392 0,1.68408 14.8222,21.56533 17.1617,23.01926 1.6556,1.02891 12.2557,-3.81298 33.8383,-15.45668 4.125,-2.22541 18.7203,-9.69379 32.4341,-16.59639 18.6958,-9.41023 25.3187,-12.30756 26.4714,-11.58044 1.7201,1.08498 8.8117,12.73589 17.8267,29.28779 2.3381,4.29283 2.4223,5.05244 1.8291,16.5 -1.0948,21.12505 4.1871,59.52405 9.76,70.95455 1.0604,2.175 4.0506,7.125 6.6448,11 2.5943,3.875 5.4601,8.17045 6.3684,9.54545 14.3754,21.76017 30.914,46.10564 32.1831,47.3748 2.0231,2.02311 3.4824,2.08607 3.4824,0.15024 0,-0.81122 1.2815,-4.29872 2.8478,-7.75 7.8279,-17.24864 14.581,-45.07557 14.6276,-60.27504 l 0.024,-8 -5.75,-9.15209 c -3.1625,-5.03366 -5.75,-9.49822 -5.75,-9.92126 0,-0.42304 -0.6222,-1.4796 -1.3828,-2.34791 -1.9266,-2.19947 -10.0123,-22.84331 -12.9562,-33.07874 -6.7092,-23.32664 -7.1617,-26.28915 -6.9878,-45.75435 0.1716,-19.2113 0.9985,-24.02477 6.5699,-38.24565 10.7373,-27.40664 42.8946,-56.00295 79.1264,-70.36435 17.15435,-6.79953 50.80145,-9.31844 74.63155,-5.58711 13.3974,2.09777 29.2402,8.82345 40.499,17.19287 9.7599,7.25515 23.6954,22.02933 29.5818,31.36218 2.98,4.72477 6.5432,9.91016 7.9182,11.52309 l 2.5,2.9326 38.5,0.22036 c 42.1677,0.24135 41.1696,0.10106 45.053,6.33217 1.64,2.63153 1.7652,3.6113 0.8112,6.34808 -5.185,14.87373 -27.3977,36.45299 -48.3642,46.985 -4.0623,2.04062 -9.5154,6.55291 -9.4812,7.84558 0.01,0.39024 2.7396,2.95953 6.0651,5.70953 11.9371,9.87122 17.9163,16.07736 17.9124,18.59213 -0.01,5.49707 -5.871,11.4895 -16.7328,17.10369 -9.5837,4.95358 -10.8057,6.9212 -7.8492,12.63839 0.7779,1.5042 1.7079,4.30016 2.0668,6.21326 0.5468,2.91462 0.2366,3.86919 -1.9143,5.88976 -2.6455,2.48537 -3.4045,6.42698 -1.468,7.6238 0.6043,0.37349 1.6777,2.05597 2.3853,3.73885 1.6643,3.95817 0.499,7.35497 -4.0285,11.74322 -3.9093,3.78902 -4.2687,5.97954 -1.6085,9.80253 4.0974,5.8884 5.22,14.28903 2.8014,20.96485 -1.5918,4.39386 -9.862,12.59959 -15.2522,15.13328 -2.3761,1.11689 -6.3031,2.47511 -8.7268,3.01826 -2.4236,0.54315 -5.6966,1.478 -7.2733,2.07745 -1.5767,0.59945 -5.5733,1.70981 -8.8814,2.46747 -3.3081,0.75765 -9.6148,2.43015 -14.0148,3.71666 l -8,2.3391 -0.5651,9.96865 c -0.3108,5.48276 -0.3688,10.54779 -0.1288,11.25564 0.24,0.70784 1.6193,1.91195 3.0651,2.67579 4.9725,2.62698 13.2544,11.57244 15.59,16.83914 1.2679,2.85894 3.1534,5.96086 4.1901,6.89314 1.9351,1.74027 15.7242,7.73325 29.775,12.94077 4.3594,1.61569 9.3094,3.55831 11,4.31692 1.6906,0.75862 7.1237,2.82484 12.0737,4.59162 4.95,1.76677 9.45,3.53563 10,3.93079 0.55,0.39516 5.275,2.42356 10.5,4.50754 10.4204,4.15615 24.8137,11.49972 34.9699,17.84184 12.0987,7.55518 29.8145,23.86029 35.9294,33.06834 0.7697,1.15892 2.8678,3.68212 4.6625,5.60712 1.7948,1.925 5.7653,6.875 8.8233,11 3.058,4.125 5.9264,7.95 6.3743,8.5 1.0828,1.3297 11.2692,17.00157 14.1586,21.78304 6.9777,11.54706 19.9706,37.02335 25.5569,50.11135 8.6061,20.16344 15.4319,37.35234 19.5001,49.10564 2.2844,6.6 5.9561,17.175 8.1593,23.5 2.20329,6.325 4.57959,13.3 5.28079,15.5 2.2896,7.1836 5.7402,14.3456 7.1773,14.8971 1.6399,0.6293 4.4076,-0.2521 4.4076,-1.4036 0,-0.9236 5.5675,-9.5978 10.1304,-15.7835 1.7405,-2.3595 4.0311,-5.9595 5.0901,-8 1.0591,-2.0405 2.7927,-4.4571 3.8526,-5.3703 1.0598,-0.9132 1.9269,-2.3404 1.9269,-3.1716 0,-0.8312 1.9707,-5.2591 4.3793,-9.8397 2.4085,-4.5806 5.0868,-9.6784 5.9517,-11.3284 0.8649,-1.65 3.1234,-6.375 5.0189,-10.5 1.8955,-4.125 5.5534,-12 8.1286,-17.5 2.5753,-5.50004 5.5851,-12.92504 6.6885,-16.50004 1.1034,-3.575 2.3932,-7.243 2.8663,-8.151 1.8985,-3.6441 10.7501,-32.14133 13.3094,-42.84899 3.9633,-16.58128 4.6771,-19.98236 5.6625,-26.98153 0.5794,-4.11484 1.4954,-9.06484 2.0357,-11 0.5402,-1.93516 1.4261,-7.56847 1.9686,-12.51847 0.5425,-4.95 1.3866,-11.925 1.8758,-15.5 2.1616,-15.7957 3.6253,-63.93286 2.2163,-72.88785 -0.6393,-4.06331 -1.8106,-15.67179 -2.6028,-25.7966 -0.7922,-10.12481 -2.3172,-23.22528 -3.389,-29.11215 -1.0717,-5.88687 -2.2297,-12.9534 -2.5733,-15.7034 -0.3437,-2.75 -1.2502,-7.25 -2.0145,-10 -1.2659,-4.55503 -4.1211,-15.78908 -6.608,-26 -1.3666,-5.61132 -10.7442,-34.37529 -12.3887,-38 -0.7485,-1.65 -2.1406,-5.025 -3.0935,-7.5 -0.9528,-2.475 -2.1148,-4.9275 -2.5821,-5.45 -0.4673,-0.5225 -0.8497,-1.63435 -0.8497,-2.47078 0,-2.11733 -21.891,-45.51672 -28.8106,-57.11759 -3.1292,-5.2461 -8.3894,-13.5099 -11.6894,-18.36399 -3.3,-4.85409 -6.675,-9.83225 -7.5,-11.06259 -3.5398,-5.27898 -5.7432,-8.38641 -9.9519,-14.03505 -2.4587,-3.3 -4.73149,-6.225 -5.05049,-6.5 -0.319,-0.275 -5.2026,-6.01884 -10.8524,-12.76408 -5.6498,-6.74524 -13.1943,-15.29524 -16.7655,-19 -3.5712,-3.70476 -6.8051,-7.1966 -7.1864,-7.75966 -1.8411,-2.71868 -35.3309,-32.30042 -42.6933,-37.71119 -0.55,-0.4042 -2.5303,-1.9792 -4.4008,-3.5 -7.9959,-6.50116 -28.9395,-21.47133 -32.8491,-23.48002 -2.3375,-1.20097 -4.25,-2.54391 -4.25,-2.98432 0,-0.4404 -0.6966,-0.80073 -1.5481,-0.80073 -0.8514,0 -3.9562,-1.54049 -6.8995,-3.42331 -10.6595,-6.81881 -33.0894,-19.05615 -39.5524,-21.57913 -1.925,-0.75146 -5.067,-2.40833 -6.9822,-3.68193 -1.9151,-1.2736 -4.2225,-2.31563 -5.1275,-2.31563 -0.905,0 -2.1591,-0.61891 -2.7869,-1.37536 -0.6278,-0.75645 -3.2704,-1.95127 -5.8724,-2.65517 -2.6021,-0.7039 -5.181,-1.60281 -5.731,-1.99758 -1.8591,-1.33441 -31.7287,-11.5833 -45,-15.44049 -3.3,-0.95911 -7.0337,-2.14604 -8.2971,-2.63762 -1.2634,-0.49158 -3.8658,-0.89378 -5.7832,-0.89378 -1.9174,0 -5.7063,-1.125 -8.4197,-2.5 -3.294,-1.66918 -6.5846,-2.5 -9.9017,-2.5 -2.7325,0 -6.2349,-0.50191 -7.7832,-1.11536 -1.5483,-0.61344 -7.6374,-1.96879 -13.5313,-3.01189 -5.8939,-1.04309 -11.9689,-2.39013 -13.5,-2.99341 -3.8038,-1.49875 -34.7911,-3.21634 -57.28385,-3.17518 -27.9923,0.0512 -65.0599,1.76747 -68.435,3.16857 -1.6142,0.67012 -6.5642,1.45824 -11,1.75139 -4.4357,0.29314 -8.965,0.91055 -10.065,1.372 -4.9868,2.09198 -9.1806,3.00571 -13.8992,3.02833 -2.8055,0.0134 -7.1258,0.51536 -9.6008,1.11538 -2.475,0.60001 -7.2,1.68071 -10.5,2.40156 -3.3,0.72085 -9.15,2.24513 -13,3.38731 -3.85,1.14217 -9.25,2.58019 -12,3.1956 -2.75,0.61541 -6.1572,1.7092 -7.5715,2.43065 -1.4143,0.72146 -6.8143,2.7379 -12,4.48099 -5.1857,1.7431 -10.3351,3.73908 -11.4432,4.43552 -1.1081,0.69644 -3.5831,1.5992 -5.5,2.00613 -3.7636,0.79895 -12.5523,4.10466 -14.9853,5.6365 -3.404,2.14311 -14.0648,6.88591 -15.4781,6.88591 -0.837,0 -1.5219,0.45 -1.5219,1 0,0.55 -0.5625,1.00193 -1.25,1.00428 -0.6875,0.002 -3.275,1.35043 -5.75,2.99572 -2.475,1.64529 -5.1056,2.99336 -5.8457,2.99572 -0.7401,0.002 -2.5401,0.84345 -4,1.8691 -1.4599,1.02565 -6.2543,3.78648 -10.6543,6.13518 -4.4,2.3487 -9.1945,5.10953 -10.6544,6.13518 -1.4599,1.02565 -2.8929,1.86482 -3.1845,1.86482 -0.6825,0 -18.9995,12.16657 -19.6611,13.0594 -0.275,0.37111 -2.975,2.30059 -6,4.28772 -9.9955,6.56607 -29.4028,21.29805 -35.0596,26.61362 -0.9009,0.84659 -5.8606,5.36426 -11.0214,10.03926 -26.3949,23.91007 -53.7385,55.11683 -71.8491,82 -2.4084,3.575 -4.728,6.73217 -5.1547,7.01593 -0.4267,0.28377 -2.1885,3.2016 -3.9152,6.48407 -1.7267,3.28247 -3.447,6.2003 -3.8229,6.48407 -3.6775,2.7763 -31.1771,56.11358 -31.1771,60.4701 0,0.85021 -0.3788,1.54583 -0.8417,1.54583 -0.463,0 -1.4014,1.9125 -2.0854,4.25 -0.6841,2.3375 -2.1053,5.73822 -3.1583,7.55716 -1.0531,1.81894 -1.9146,3.96254 -1.9146,4.76357 0,0.80102 -0.4211,2.2378 -0.9357,3.19284 -2.458,4.5615 -3.9359,8.51655 -4.5577,12.19708 -0.3743,2.21588 -1.0915,4.28279 -1.5936,4.59313 -0.5022,0.31034 -0.913,1.4438 -0.913,2.51881 0,1.075 -0.4152,2.73594 -0.9227,3.69098 -0.5074,0.95504 -1.9017,5.11143 -3.0984,9.23643 -1.1967,4.125 -2.5815,8.80465 -3.0774,10.39922 -0.4958,1.59458 -0.9015,4.09208 -0.9015,5.55 0,1.45793 -0.4496,3.10036 -0.9991,3.64985 -0.5495,0.54949 -1.4383,4.46348 -1.9752,8.69776 -0.5368,4.23427 -2.1122,11.61774 -3.5009,16.40769 -1.3886,4.78996 -2.5463,11.20347 -2.5726,14.25225 -0.026,3.04878 -0.6949,10.26823 -1.486,16.04323 -3.0199,22.04632 -3.6417,32.61274 -3.001,51 1.5576,44.70641 2.1245,56.56585 2.7513,57.56137 0.3676,0.58376 1.1245,6.31399 1.6821,12.73385 0.5575,6.41986 1.5048,12.59014 2.1051,13.71173 0.6003,1.12159 1.5343,5.93754 2.0757,10.70211 0.5414,4.76458 1.3694,9.14168 1.84,9.7269 0.4706,0.58522 1.0852,2.86404 1.3658,5.06404 0.2807,2.2 0.9739,5.575 1.5405,7.5 0.5666,1.925 2.1852,7.89044 3.5969,13.25654 2.5542,9.70937 10.4492,33.99255 13.0246,40.06045 0.743,1.7507 2.1103,5.208 3.0385,7.683 0.9282,2.475 2.96,7.20004 4.5152,10.50004 1.5551,3.3 4.0236,8.925 5.4854,12.5 2.8242,6.9067 8.8848,19.1988 12.3263,25 1.1419,1.925 3.2345,5.75 4.6502,8.5 3.1584,6.1353 2.9177,5.7427 14.4083,23.5 5.1605,7.975 9.8882,14.95 10.5058,15.5 0.6177,0.55 2.8294,3.609 4.915,6.7977 3.1948,4.8848 5.9861,7.3195 8.7581,7.6389 0.3025,0.035 1.09,-0.4766 1.75,-1.1366 z m 313.7035,-146.30002 c 0.5864,-3.85001 1.838,-8.53165 2.7813,-10.40365 2.283,-4.53045 2.1651,-8.69754 -0.3378,-11.9382 -1.9108,-2.47398 -10.5779,-15.63833 -26.1101,-39.65816 -3.5565,-5.5 -8.866,-13.9463 -11.7988,-18.76956 -2.9328,-4.82326 -5.5384,-8.56347 -5.7903,-8.31157 -0.7195,0.7195 -0.4577,15.33386 0.6553,36.58113 0.5618,10.725 1.0836,26.7 1.1596,35.5 0.076,8.8 0.3704,17.92221 0.6544,20.27161 l 0.5165,4.27168 18.6018,-0.2717 18.6019,-0.2716 z m 226.49665,5.74998 c 0,-0.9625 0.031,-30.77499 0.07,-66.24999 0.038,-35.475 -0.2095,-65.22095 -0.5504,-66.10211 -0.3715,-0.96045 -2.9026,-2.10927 -6.3195,-2.86837 -3.1349,-0.69644 -7.3694,-2.11299 -9.4099,-3.14789 -7.314,-3.7093 -8.1515,-2.52927 -6.1504,8.666 0.7818,4.3738 2.3067,14.25237 3.3886,21.95237 1.082,7.7 2.4077,16.7 2.9461,20 0.5384,3.3 1.6777,11.175 2.5317,17.5 0.8541,6.325 2.0465,14.28024 2.6499,17.67832 0.6033,3.39808 0.7927,7.39082 0.4208,8.87275 -0.5985,2.38447 -1.0444,2.63341 -3.8764,2.16401 -1.7601,-0.29173 -5.7943,-2.09914 -8.9649,-4.01646 -3.1705,-1.91733 -8.7955,-4.71161 -12.5,-6.20951 -3.7044,-1.4979 -9.4353,-3.8942 -12.7353,-5.3251 -9.003,-3.90379 -17.8256,-3.71054 -26.7527,0.58599 -3.7139,1.7875 -7.3364,3.25 -8.05,3.25 -0.7135,0 -1.7248,0.40259 -2.2473,0.89465 -0.5225,0.49205 -2.3408,1.18706 -4.0406,1.54446 -3.8119,0.80143 -5.9207,-1.26578 -5.0066,-4.90778 2.0127,-8.01938 26.4187,-26.40783 35.1821,-26.50759 3.1619,-0.036 13.8177,3.6876 22.0605,7.70891 4.0497,1.97569 7.5642,3.39113 7.8099,3.14543 0.8175,-0.8175 -1.4411,-26.27722 -2.9181,-32.8935 -0.7999,-3.58348 -1.7657,-12.13348 -2.1462,-19 -1.0439,-18.83833 -5.8978,-33.98458 -10.891,-33.98458 -1.4113,0 -4.7603,3.59269 -6.6206,7.10234 -0.7587,1.43129 -2.5378,4.80629 -3.9537,7.5 -1.4158,2.69371 -4.9614,9.39766 -7.8791,14.89766 -2.9177,5.5 -9.2968,17.52584 -14.1758,26.7241 -4.8789,9.19825 -8.8708,17.08415 -8.8708,17.52421 0,0.44007 -1.9416,4.2072 -4.3147,8.37141 -2.3731,4.16421 -4.947,9.10331 -5.7199,10.97579 -0.7728,1.87247 -3.1062,6.20886 -5.1853,9.63642 -2.0791,3.42756 -3.7801,6.97519 -3.7801,7.88362 0,0.90842 2.2056,3.82278 4.9013,6.47633 4.8459,4.77004 6.154,7.37695 9.5818,19.09552 1.3808,4.72059 2.6033,6.50549 7.1915,10.5 3.0404,2.64691 6.3915,6.50011 7.447,8.56261 l 1.919,3.74998 h 37.4797 c 35.0282,0 37.4797,-0.1145 37.4798,-1.75 z M 620.87076,662.8225 c 1.273,-1.19588 2.3145,-2.97565 2.3145,-3.95505 0,-1.49724 -15.0863,-25.35083 -16.9944,-26.87064 -0.3453,-0.275 -2.3216,-3.2 -4.3919,-6.5 -3.1475,-5.0172 -9.136,-14.04374 -13.6004,-20.5 -0.5705,-0.825 -2.5144,-3.75 -4.3197,-6.5 -6.6109,-10.06992 -10.6863,-16.08002 -13.2228,-19.5 -2.3433,-3.15933 -5.1434,-7.32551 -13.106,-19.5 -3.2262,-4.93282 -12.2604,-18.33678 -19.5459,-29 -3.0062,-4.4 -10.1946,-14.975 -15.9742,-23.5 -5.7796,-8.525 -14.9519,-22.025 -20.3828,-30 -17.4086,-25.56334 -18.4885,-27.37242 -20.9093,-35.02912 -3.473,-10.98455 -5.5526,-21.98457 -5.5526,-29.3697 0,-3.56573 -0.4171,-6.74091 -0.9268,-7.05595 -0.5098,-0.31504 -3.0973,0.76811 -5.75,2.40701 -2.6528,1.63889 -6.1732,3.72322 -7.8232,4.63184 -5.2934,2.91492 -9.5,6.4745 -9.5,8.03869 0,2.07464 22.1077,35.68614 56.1562,85.37723 5.2256,7.62637 19.2839,28.50065 24.3438,36.14655 0.55,0.83109 3.025,4.45345 5.5,8.04967 10.9599,15.92498 57.2722,84.53362 62.6445,92.80378 14.8329,22.83377 16.3338,24.24792 21.041,19.82569 z m 56.91785,-12.38119 c 0.3527,-1.40552 3.7363,-8.85406 7.519,-16.5523 6.8293,-13.89829 7.5686,-15.82451 6.1277,-15.96569 -4.7358,-0.46402 -60.58405,-0.81783 -63.00005,-0.39912 -3.8502,0.66724 -4.2378,2.79224 -1.1157,6.11558 2.4198,2.57582 7.5676,10.5617 11.3495,17.60703 2.69015,5.0113 3.66635,5.44188 8.20115,3.6174 3.4512,-1.38855 16.8557,-1.17176 19.7231,0.31898 1.1506,0.59815 3.3622,2.60092 4.9148,4.45058 3.3723,4.01776 5.409,4.27963 6.2805,0.80754 z m -7.903,-55.72391 c 1.7602,-0.94632 4.5476,-1.72059 6.1943,-1.72059 1.72,0 4.0249,-0.95731 5.4172,-2.25 2.9197,-2.71085 7.5381,-15.33592 8.7725,-23.98126 0.4924,-3.44781 1.5582,-9.41874 2.3687,-13.26874 0.918,-4.36134 1.4873,-12.81021 1.5102,-22.41368 l 0.037,-15.41368 -12.0008,-11.49977 c -14.6276,-14.01689 -20.5588,-23.11178 -22.2663,-34.14271 -0.8048,-5.19972 -0.7821,-7.6269 0.089,-9.53967 1.4325,-3.14399 2.9947,-2.51318 8.7293,3.52489 8.5795,9.03358 18.5932,15.00387 28.6385,17.07465 2.9204,0.60203 7.2381,1.72806 9.5948,2.50228 2.866,0.94154 8.9618,1.40769 18.408,1.40769 13.0808,0 14.868,-0.23438 24.2151,-3.17571 12.5589,-3.95199 15.592,-6.53864 15.592,-13.29703 0,-4.55859 -1.544,-8.61942 -5.1433,-13.52726 -1.0084,-1.375 -3.045,-6.325 -4.5256,-11 -2.5154,-7.9417 -2.6968,-9.74795 -2.7617,-27.5 -0.064,-17.64105 -0.2482,-19.49938 -2.5694,-25.98205 -2.1814,-6.09211 -3.7428,-8.28196 -12.25,-17.18041 l -9.75,-10.19836 v -6.06959 -6.06959 h -4.6898 c -5.4184,0 -14.4614,-1.49643 -22.1988,-3.67345 -6.9497,-1.95536 -9.673,-0.7156 -11.1956,5.09678 -0.5874,2.24217 -2.1436,7.67667 -3.4581,12.07667 -1.3146,4.4 -2.8503,9.82931 -3.4127,12.06513 -0.5624,2.23582 -2.0401,5.00612 -3.2838,6.15622 -2.8939,2.67618 -11.7443,5.27865 -17.9514,5.27865 -4.4186,0 -5.3191,-0.44435 -10.6388,-5.25 -11.0858,-10.01457 -13.69135,-12.06093 -17.67105,-13.87887 -4.3294,-1.97765 -12.8606,-2.44494 -16.862,-0.9236 -3.456,1.31395 -7.3567,8.42586 -8.4507,15.40743 -0.8617,5.49883 0,20.39178 1.4465,25.14146 1.7295,5.66007 6.8943,14.22501 11.4673,19.01641 4.316,4.52221 6.4906,5.87397 13.5715,8.43613 4.6375,1.67807 9.26025,3.05104 10.27275,3.05104 2.5873,0 3.3826,2.85056 1.5679,5.62009 -3.0818,4.7035 -6.4786,5.52449 -21.83505,5.27746 -15.4426,-0.24841 -16.8841,0.1151 -23.5657,5.94295 -2.7444,2.39375 -3.6273,4.16051 -4.6507,9.30706 -1.555,7.81943 -4.7955,21.03236 -7.444,30.35244 -1.0941,3.85 -3.6188,13.525 -5.6104,21.5 -7.3071,29.26039 -7.496,30.98116 -3.8976,35.5 2.4653,3.09586 16.0518,22.25091 20.9241,29.5 5.2784,7.85336 10.2493,12.77151 14.1598,14.00934 1.5984,0.50598 13.9313,0.81014 27.40635,0.6759 20.9555,-0.20875 24.963,-0.49297 27.7003,-1.96465 z M 459.02576,552.58488 c 2.0912,-2.09122 0.513,-3.58807 -3.7832,-3.58807 -4.5677,0 -7.9939,-3.35971 -15.0577,-14.7655 -14.0813,-22.73693 -16.3426,-25.71936 -19.7496,-26.04786 -2.9202,-0.28155 -3.25,-0.0472 -3.25,2.30917 0,1.57214 2.7199,6.70423 6.7908,12.81336 3.735,5.60496 7.9633,12.21583 9.3963,14.69083 1.433,2.475 4.72,7.37212 7.3046,10.88248 l 4.6992,6.38248 6.1267,-0.64037 c 3.3697,-0.3522 6.755,-1.26864 7.5229,-2.03652 z m -58.2863,-51.74558 c 2.7202,-1.73663 7.8708,-4.71029 11.4458,-6.60814 13.0344,-6.91954 18.8358,-10.33163 20.0463,-11.79015 1.5869,-1.91215 -1.0204,-8.08708 -5.0413,-11.93934 l -2.7572,-2.64159 -3.3739,1.8245 c -1.8557,1.00347 -7.3006,4.39206 -12.0998,7.5302 -4.7992,3.13814 -10.1455,6.51039 -11.8806,7.49387 -1.7351,0.98349 -3.9928,2.27811 -5.0172,2.87694 -6.9364,4.05479 -7.7317,8.57499 -2.3415,13.30763 1.9441,1.70697 4.106,3.10359 4.8042,3.10359 0.6982,0 3.495,-1.42088 6.2152,-3.15751 z m -46.5542,-36.93476 c 0,-1.15075 -0.9,-3.23644 -2,-4.63486 -2.7725,-3.52462 -2.716,-11.5862 0.1138,-16.228 4.3926,-7.20563 9.3971,-11.08737 26.4199,-20.49294 9.4301,-5.21039 19.5803,-10.68868 22.556,-12.17397 2.9756,-1.4853 8.1103,-4.32557 11.4103,-6.31172 10.6957,-6.4374 11.9406,-7.13396 16.1365,-9.02934 2.2751,-1.0277 5.8751,-2.95991 8,-4.29381 2.1249,-1.33389 6.1135,-3.66917 8.8635,-5.1895 17.4411,-9.64228 17.6436,-9.78389 19.2056,-13.43329 0.8523,-1.99117 2.4331,-5.55157 3.513,-7.91201 1.0798,-2.36044 1.6919,-4.99915 1.3601,-5.86381 -0.548,-1.42796 -0.8085,-1.42839 -2.841,-0.005 -1.2308,0.8621 -4.9377,2.92134 -8.2377,4.5761 -7.5829,3.80234 -12.9218,6.87523 -17.9822,10.34982 -2.1901,1.50384 -4.3358,2.73425 -4.768,2.73425 -0.4323,0 -3.7488,1.8 -7.3701,4 -3.6213,2.2 -6.7946,4 -7.0519,4 -0.2573,0 -3.6988,1.96088 -7.6478,4.35751 -3.949,2.39663 -9.655,5.71718 -12.68,7.37899 -3.025,1.66182 -9.1,5.0724 -13.5,7.57907 -4.4,2.50666 -10.475,5.93245 -13.5,7.61285 -3.025,1.6804 -7.3,4.16748 -9.5,5.52684 -2.2,1.35936 -6.475,3.77498 -9.5,5.36805 -18.2124,9.59124 -18.8721,10.13841 -21.9162,18.17669 -2.9475,7.78326 -2.7336,12.80548 0.7495,17.59996 4.7155,6.49097 7.7138,7.9594 16.9167,8.28504 2.6677,0.0944 3.25,-0.25984 3.25,-1.97727 z M 767.82921,335.98222 c 15.3111,-1.91984 38.2633,-8.64327 48.1621,-14.10816 14.9784,-8.26931 23.194,-13.91834 23.194,-15.94829 0,-1.06093 -0.5625,-1.94095 -1.25,-1.9556 -0.6875,-0.0146 -15.2678,-0.003 -32.4005,0.0257 -30.4128,0.0511 -31.3246,0.11091 -38.5,2.52393 -4.0423,1.35935 -8.2495,2.9059 -9.3495,3.43677 -1.1,0.53087 -6.5,2.36931 -12,4.08542 -5.5,1.71611 -11.9076,3.98298 -14.2391,5.03749 -2.3315,1.05451 -4.634,1.91729 -5.1167,1.91729 -0.4826,0 -3.075,0.8684 -5.7609,1.92978 -2.6858,1.06137 -6.6211,2.2162 -8.7451,2.56627 -3.7173,0.61271 -8.6382,4.29186 -8.6382,6.4585 0,0.575 1.6604,1.04545 3.6898,1.04545 2.0294,0 6.1919,0.43774 9.25,0.97274 12.7366,2.22825 18.2117,2.74415 30.5864,2.88208 7.1644,0.0798 16.6674,-0.31138 21.1177,-0.86941 z m -61.516,-26.3807 c 1.8546,-0.76741 7.1641,-2.16326 11.7988,-3.10189 4.6347,-0.93863 9.1347,-2.06306 10,-2.49874 0.8653,-0.43567 3.8233,-1.26682 6.5733,-1.84699 2.75,-0.58017 9.5,-2.13354 15,-3.45193 9.7946,-2.34786 10.0062,-2.45948 10.3047,-5.43549 0.2241,-2.23467 -0.3224,-3.53191 -2.0662,-4.90404 -1.3041,-1.02609 -3.9465,-3.92995 -5.8722,-6.453 -4.8691,-6.37981 -20.0694,-20.43895 -26.6446,-24.64437 -1.497,-0.95742 -3.1717,-2.289 -3.7217,-2.95908 -1.3926,-1.69656 -11.9033,-6.72764 -18.5,-8.85521 -3.025,-0.97563 -7.1966,-2.37689 -9.2703,-3.11392 -2.5277,-0.89842 -8.8357,-1.34005 -19.1408,-1.34005 -13.1778,0 -15.9924,0.28219 -19.7297,1.97804 -2.3976,1.08792 -5.4692,1.98792 -6.8258,2 -3.7592,0.0335 -10.32835,2.58289 -23.72265,9.20664 -10.4026,5.14423 -12.3467,6.47934 -13.2632,9.10842 -1.4096,4.04378 -0.4747,4.73756 4.9524,3.67503 6.3636,-1.24589 22.8179,-1.16931 31.30845,0.14571 15.1116,2.34052 29.3725,9.33309 37.3635,18.32054 5.134,5.77412 6.4849,8.12379 10.8177,18.81562 3.0171,7.44503 4.1763,8.0285 10.6383,5.35471 z"
       id="path28-4"
       sodipodi:nodetypes="sssssssssssssssssssssssssssssssssssssssssssssssssssssssssssssssssssssssssssssssssssssssssssssssssssssssssssssssssssssssssssssssssssssssssscsssscssssssssssssssssssssssssssssssssssssssssssscscssssscsssssssssssscsssssssssscssssssssssssssssssssssssssssssssssssssssssssssssssssssssssssssssssssssssscssssssssssssssssssssssssscsssscssssssssssscsssssscsssssssssssssscsssssssssssssssssssssssssssssssssssssssssssssssssssssssssssssssssssssssssssssssssssssssssssssssssssssssssssssssssssssssssssssssssssssssssssssssssssssssssscccsscssssssssssssssssssssssssssssssssssssscssssssssssssssssssssssssssssssssssssssssscsssssssssssssscccssssssssssscssssssssssssssssssssssscsssssscssssssssssssssssssssssssssssssssssssssssssssssssssssssssssssssssssssssssssss"
       inkscape:export-xdpi="300"
       inkscape:export-ydpi="300" />
  </g>
</svg>
